<svg xmlns="http://www.w3.org/2000/svg"  viewBox="0 0 24 24" width="48px" height="48px" baseProfile="basic"><linearGradient id="WAV9CA-Iw_5zTcjMjdPOEa" x1="2.283" x2="16.046" y1="5.111" y2="18.873" gradientUnits="userSpaceOnUse"><stop offset="0" stop-color="#fff" stop-opacity=".6"/><stop offset="1" stop-color="#fff" stop-opacity=".3"/></linearGradient><path fill="url(#WAV9CA-Iw_5zTcjMjdPOEa)" d="M20.763,9.894C19.756,9.316,8.189,2.676,7.711,2.389C7.299,2.136,6.831,2,6.364,2 C5.038,2,4,3.075,4,4.448v7.518v7.67C4,20.962,5.005,22,6.287,22c0.445,0,0.891-0.13,1.291-0.375 c0.221-0.132,3.391-1.953,6.187-3.559c4.636-2.663,6.841-3.93,7.031-4.047c0.766-0.472,1.217-1.255,1.204-2.095 C21.987,11.091,21.525,10.332,20.763,9.894z"/><linearGradient id="WAV9CA-Iw_5zTcjMjdPOEb" x1="2.283" x2="16.046" y1="5.111" y2="18.873" gradientUnits="userSpaceOnUse"><stop offset="0" stop-color="#fff" stop-opacity=".6"/><stop offset=".493" stop-color="#fff" stop-opacity="0"/><stop offset=".997" stop-color="#fff" stop-opacity=".3"/></linearGradient><path fill="url(#WAV9CA-Iw_5zTcjMjdPOEb)" d="M6.364,2.5c0.374,0,0.75,0.109,1.09,0.318 c0.487,0.292,12.009,6.907,13.06,7.51c0.608,0.349,0.976,0.949,0.986,1.604c0.01,0.661-0.351,1.282-0.967,1.662 c-0.192,0.119-2.792,1.612-7.017,4.039c-2.798,1.607-5.969,3.428-6.199,3.566C6.996,21.396,6.64,21.5,6.287,21.5 c-1.002,0-1.787-0.819-1.787-1.864v-7.67V4.448C4.5,3.356,5.319,2.5,6.364,2.5 M6.364,2C5.038,2,4,3.075,4,4.448v7.518v7.67 C4,20.962,5.005,22,6.287,22c0.445,0,0.891-0.13,1.291-0.375c0.221-0.132,3.391-1.953,6.187-3.559 c4.636-2.663,6.841-3.93,7.031-4.047c0.766-0.472,1.217-1.255,1.204-2.095c-0.013-0.833-0.475-1.592-1.237-2.03 C19.756,9.316,8.189,2.676,7.711,2.389C7.299,2.136,6.831,2,6.364,2L6.364,2z"/><linearGradient id="WAV9CA-Iw_5zTcjMjdPOEc" x1="1.94" x2="14.992" y1="5.467" y2="18.519" gradientUnits="userSpaceOnUse"><stop offset="0" stop-color="#fff" stop-opacity=".7"/><stop offset=".519" stop-color="#fff" stop-opacity=".45"/><stop offset="1" stop-color="#fff" stop-opacity=".55"/></linearGradient><path fill="url(#WAV9CA-Iw_5zTcjMjdPOEc)" d="M5.92,21.963l7.222-8.426l2.807,3.274	c0.659-0.379,1.245-0.716,1.765-1.014L14.46,12l3.289-3.837c-0.551-0.316-1.147-0.659-1.765-1.014l-2.841,3.314L5.926,2.044	C5.224,2.176,4.648,2.62,4.313,3.236L11.825,12l-7.533,8.788C4.623,21.408,5.209,21.848,5.92,21.963z"/></svg>