<svg xmlns="http://www.w3.org/2000/svg"  viewBox="0 0 24 24" width="48px" height="48px" baseProfile="basic"><linearGradient id="aeHx-hPPu5OZcvLvuC3OFa" x1="3.879" x2="20.121" y1="3.879" y2="20.121" gradientUnits="userSpaceOnUse"><stop offset="0" stop-color="#fff" stop-opacity=".6"/><stop offset="1" stop-color="#fff" stop-opacity=".3"/></linearGradient><path fill="url(#aeHx-hPPu5OZcvLvuC3OFa)" d="M18,21H6c-1.657,0-3-1.343-3-3V6c0-1.657,1.343-3,3-3h12c1.657,0,3,1.343,3,3v12 C21,19.657,19.657,21,18,21z"/><linearGradient id="aeHx-hPPu5OZcvLvuC3OFb" x1="3.879" x2="20.121" y1="3.879" y2="20.121" gradientUnits="userSpaceOnUse"><stop offset="0" stop-color="#fff" stop-opacity=".6"/><stop offset=".493" stop-color="#fff" stop-opacity="0"/><stop offset=".997" stop-color="#fff" stop-opacity=".3"/></linearGradient><path fill="url(#aeHx-hPPu5OZcvLvuC3OFb)" d="M18,3.5c1.379,0,2.5,1.122,2.5,2.5v12 c0,1.378-1.121,2.5-2.5,2.5H6c-1.379,0-2.5-1.122-2.5-2.5V6c0-1.378,1.121-2.5,2.5-2.5H18 M18,3H6C4.343,3,3,4.343,3,6v12 c0,1.657,1.343,3,3,3h12c1.657,0,3-1.343,3-3V6C21,4.343,19.657,3,18,3L18,3z"/><linearGradient id="aeHx-hPPu5OZcvLvuC3OFc" x1="8.043" x2="13.75" y1="8.543" y2="14.25" gradientUnits="userSpaceOnUse"><stop offset="0" stop-color="#fff" stop-opacity=".7"/><stop offset=".519" stop-color="#fff" stop-opacity=".45"/><stop offset="1" stop-color="#fff" stop-opacity=".55"/></linearGradient><path fill="url(#aeHx-hPPu5OZcvLvuC3OFc)" d="M10.566,13l3.291-5.485	c0.284-0.474,0.131-1.088-0.343-1.372c-0.475-0.285-1.088-0.131-1.372,0.343L12,6.723l-0.143-0.238	c-0.283-0.474-0.897-0.628-1.372-0.343c-0.474,0.284-0.627,0.898-0.343,1.372l0.691,1.152L8.234,13H7c-0.553,0-1,0.447-1,1	s0.447,1,1,1h6c0-1.098-0.738-2-0.738-2H10.566z"/><linearGradient id="aeHx-hPPu5OZcvLvuC3OFd" x1="6.297" x2="7.788" y1="16.136" y2="17.627" gradientUnits="userSpaceOnUse"><stop offset="0" stop-color="#fff" stop-opacity=".7"/><stop offset=".519" stop-color="#fff" stop-opacity=".45"/><stop offset="1" stop-color="#fff" stop-opacity=".55"/></linearGradient><path fill="url(#aeHx-hPPu5OZcvLvuC3OFd)" d="M6.434,16l-0.291,0.485	c-0.284,0.474-0.131,1.088,0.343,1.372C6.646,17.954,6.824,18,6.999,18c0.34,0,0.671-0.173,0.858-0.485l0.515-0.859	C8.373,16.656,8,16,6.434,16z"/><linearGradient id="aeHx-hPPu5OZcvLvuC3OFe" x1="12.823" x2="18.457" y1="11.323" y2="16.957" gradientUnits="userSpaceOnUse"><stop offset="0" stop-color="#fff" stop-opacity=".7"/><stop offset=".519" stop-color="#fff" stop-opacity=".45"/><stop offset="1" stop-color="#fff" stop-opacity=".55"/></linearGradient><path fill="url(#aeHx-hPPu5OZcvLvuC3OFe)" d="M16.966,15H17c0.553,0,1-0.447,1-1	s-0.447-1-1-1h-1.234l-1.542-2.571c0,0-1.159,0.238-1.563,1.283c0.482,0.809,3.482,5.803,3.482,5.803	C16.33,17.827,16.661,18,17.001,18c0.175,0,0.353-0.046,0.514-0.143c0.474-0.284,0.627-0.898,0.343-1.372L16.966,15z"/></svg>